<svg width="30" height="30" viewBox="0 0 30 30" fill="none" xmlns="http://www.w3.org/2000/svg">
<g id="add-svgrepo-com 1">
<path id="Vector" d="M9.00001 14.1C8.50295 14.1 8.10001 14.5029 8.10001 15C8.10001 15.497 8.50295 15.9 9.00001 15.9V14.1ZM15 15.9C15.497 15.9 15.9 15.497 15.9 15C15.9 14.5029 15.497 14.1 15 14.1V15.9ZM15 14.1C14.503 14.1 14.1 14.5029 14.1 15C14.1 15.497 14.503 15.9 15 15.9V14.1ZM21 15.9C21.497 15.9 21.9 15.497 21.9 15C21.9 14.5029 21.497 14.1 21 14.1V15.9ZM15.9 15C15.9 14.5029 15.497 14.1 15 14.1C14.503 14.1 14.1 14.5029 14.1 15H15.9ZM14.1 21C14.1 21.497 14.503 21.9 15 21.9C15.497 21.9 15.9 21.497 15.9 21H14.1ZM14.1 15C14.1 15.497 14.503 15.9 15 15.9C15.497 15.9 15.9 15.497 15.9 15H14.1ZM15.9 8.99998C15.9 8.50292 15.497 8.09998 15 8.09998C14.503 8.09998 14.1 8.50292 14.1 8.99998H15.9ZM9.00001 15.9H15V14.1H9.00001V15.9ZM15 15.9H21V14.1H15V15.9ZM15 15H14.1V15.0012C14.1 15.0013 14.1 15.0026 14.1 15.0026C14.1 15.0025 14.1 15.0027 14.1 15.0026C14.1 15.0026 14.1 15.0039 14.1 15.0041C14.1 15.0039 14.1 15.0042 14.1 15.0041C14.1 15.0042 14.1 15.0051 14.1 15.0053C14.1 15.0054 14.1 15.0065 14.1 15.0066C14.1 15.0067 14.1 15.0077 14.1 15.0078C14.1 15.0079 14.1 15.009 14.1 15.0092C14.1 15.0093 14.1 15.0104 14.1 15.0107C14.1 15.0108 14.1 15.0121 14.1 15.0122C14.1 15.012 14.1 15.0125 14.1 15.0122C14.1 15.0125 14.1 15.0132 14.1 15.0134C14.1 15.0132 14.1 15.0137 14.1 15.0134C14.1 15.0137 14.1 15.0145 14.1 15.0146C14.1 15.0144 14.1 15.0149 14.1 15.0146C14.1 15.0149 14.1 15.0157 14.1 15.0159C14.1 15.0157 14.1 15.0162 14.1 15.0159C14.1 15.0162 14.1 15.0171 14.1 15.0174C14.1 15.0171 14.1 15.0176 14.1 15.0174C14.1 15.0176 14.1 15.0186 14.1 15.0188C14.1 15.0185 14.1 15.0191 14.1 15.0188C14.1 15.0191 14.1 15.0201 14.1 15.0204C14.1 15.0201 14.1 15.0206 14.1 15.0204C14.1 15.0206 14.1 15.0217 14.1 15.0221C14.1 15.0217 14.1 15.0223 14.1 15.0221C14.1 15.0223 14.1 15.0235 14.1 15.0237C14.1 15.0235 14.1 15.024 14.1 15.0237C14.1 15.0241 14.1 15.0252 14.1 15.0255C14.1 15.0252 14.1 15.0259 14.1 15.0255C14.1 15.0258 14.1 15.0271 14.1 15.0275C14.1 15.0271 14.1 15.0277 14.1 15.0275C14.1 15.0278 14.1 15.029 14.1 15.0294C14.1 15.029 14.1 15.0297 14.1 15.0294C14.1 15.0297 14.1 15.0312 14.1 15.0315C14.1 15.0312 14.1 15.0319 14.1 15.0315C14.1 15.0319 14.1 15.0333 14.1 15.0337C14.1 15.0333 14.1 15.0341 14.1 15.0337C14.1 15.0341 14.1 15.0355 14.1 15.036C14.1 15.0356 14.1 15.0363 14.1 15.036C14.1 15.0365 14.1 15.0379 14.1 15.0383C14.1 15.0387 14.1 15.0391 14.1 15.0396C14.1 15.0399 14.1 15.0403 14.1 15.0408C14.1 15.0413 14.1 15.0416 14.1 15.0421C14.1 15.0425 14.1 15.0429 14.1 15.0433C14.1 15.0438 14.1 15.0443 14.1 15.0447C14.1 15.0451 14.1 15.0456 14.1 15.0461C14.1 15.0465 14.1 15.0469 14.1 15.0474C14.1 15.0479 14.1 15.0483 14.1 15.0488C14.1 15.0493 14.1 15.0498 14.1 15.0503C14.1 15.0507 14.1 15.0512 14.1 15.0517C14.1 15.0522 14.1 15.0528 14.1 15.0533C14.1 15.0537 14.1 15.0542 14.1 15.0547C14.1 15.0553 14.1 15.0558 14.1 15.0563C14.1 15.0569 14.1 15.0573 14.1 15.0578C14.1 15.0584 14.1 15.0589 14.1 15.0595C14.1 15.06 14.1 15.0606 14.1 15.0611C14.1 15.0617 14.1 15.0623 14.1 15.0627C14.1 15.0633 14.1 15.0639 14.1 15.0645C14.1 15.065 14.1 15.0656 14.1 15.0662C14.1 15.0668 14.1 15.0674 14.1 15.068C14.1 15.0685 14.1 15.0691 14.1 15.0697C14.1 15.0703 14.1 15.071 14.1 15.0716C14.1 15.0722 14.1 15.0728 14.1 15.0734C14.1 15.074 14.1 15.0746 14.1 15.0753C14.1 15.0759 14.1 15.0765 14.1 15.0773C14.1 15.0779 14.1 15.0786 14.1 15.0792C14.1 15.0798 14.1 15.0805 14.1 15.0811C14.1 15.0818 14.1 15.0825 14.1 15.0831C14.1 15.0839 14.1 15.0846 14.1 15.0852C14.1 15.0859 14.1 15.0866 14.1 15.0873C14.1 15.0879 14.1 15.0887 14.1 15.0894C14.1 15.0901 14.1 15.0908 14.1 15.0915C14.1 15.0923 14.1 15.093 14.1 15.0937C14.1 15.0944 14.1 15.0953 14.1 15.096C14.1 15.0967 14.1 15.0974 14.1 15.0981C14.1 15.099 14.1 15.0997 14.1 15.1004C14.1 15.1013 14.1 15.102 14.1 15.1028C14.1 15.1035 14.1 15.1044 14.1 15.1051C14.1 15.1059 14.1 15.1068 14.1 15.1075C14.1 15.1083 14.1 15.1092 14.1 15.11C14.1 15.1107 14.1 15.1116 14.1 15.1124C14.1 15.1133 14.1 15.1141 14.1 15.1149C14.1 15.1158 14.1 15.1166 14.1 15.1175C14.1 15.1183 14.1 15.1191 14.1 15.12C14.1 15.1209 14.1 15.1218 14.1 15.1226C14.1 15.1236 14.1 15.1244 14.1 15.1253C14.1 15.1262 14.1 15.1271 14.1 15.128C14.1 15.1289 14.1 15.1298 14.1 15.1307C14.1 15.1316 14.1 15.1326 14.1 15.1334C14.1 15.1344 14.1 15.1353 14.1 15.1363C14.1 15.1373 14.1 15.1381 14.1 15.1391C14.1 15.14 14.1 15.141 14.1 15.1419C14.1 15.1429 14.1 15.144 14.1 15.1449C14.1 15.1459 14.1 15.1469 14.1 15.1478C14.1 15.1489 14.1 15.1499 14.1 15.1508C14.1 15.1519 14.1 15.1529 14.1 15.1539C14.1 15.1549 14.1 15.156 14.1 15.1569C14.1 15.158 14.1 15.1591 14.1 15.1601C14.1 15.1611 14.1 15.1622 14.1 15.1633C14.1 15.1643 14.1 15.1653 14.1 15.1664C14.1 15.1675 14.1 15.1686 14.1 15.1697C14.1 15.1707 14.1 15.1718 14.1 15.173C14.1 15.1741 14.1 15.1752 14.1 15.1763C14.1 15.1775 14.1 15.1785 14.1 15.1796C14.1 15.1808 14.1 15.1819 14.1 15.1831C14.1 15.1842 14.1 15.1854 14.1 15.1866C14.1 15.1877 14.1 15.1889 14.1 15.1901C14.1 15.1913 14.1 15.1923 14.1 15.1935C14.1 15.1947 14.1 15.1959 14.1 15.1971C14.1 15.1983 14.1 15.1995 14.1 15.2007C14.1 15.2021 14.1 15.2033 14.1 15.2045C14.1 15.2057 14.1 15.207 14.1 15.2082C14.1 15.2094 14.1 15.2107 14.1 15.2119C14.1 15.2132 14.1 15.2144 14.1 15.2157C14.1 15.2171 14.1 15.2183 14.1 15.2196C14.1 15.2209 14.1 15.2222 14.1 15.2235C14.1 15.2249 14.1 15.2262 14.1 15.2275C14.1 15.2288 14.1 15.2301 14.1 15.2315C14.1 15.2328 14.1 15.2341 14.1 15.2354C14.1 15.2369 14.1 15.2382 14.1 15.2396C14.1 15.2409 14.1 15.2423 14.1 15.2437C14.1 15.245 14.1 15.2465 14.1 15.2479C14.1 15.2492 14.1 15.2507 14.1 15.2521C14.1 15.2535 14.1 15.255 14.1 15.2564C14.1 15.2579 14.1 15.2593 14.1 15.2607C14.1 15.2622 14.1 15.2636 14.1 15.2651C14.1 15.2665 14.1 15.2679 14.1 15.2695C14.1 15.2709 14.1 15.2725 14.1 15.2739C14.1 15.2755 14.1 15.2769 14.1 15.2785C14.1 15.2799 14.1 15.2815 14.1 15.2831C14.1 15.2845 14.1 15.2861 14.1 15.2876C14.1 15.2892 14.1 15.2907 14.1 15.2923C14.1 15.2939 14.1 15.2954 14.1 15.297C14.1 15.2985 14.1 15.3002 14.1 15.3018C14.1 15.3033 14.1 15.305 14.1 15.3066C14.1 15.3083 14.1 15.3098 14.1 15.3115C14.1 15.3131 14.1 15.3147 14.1 15.3164C14.1 15.318 14.1 15.3197 14.1 15.3213C14.1 15.323 14.1 15.3247 14.1 15.3264C14.1 15.3281 14.1 15.3297 14.1 15.3314C14.1 15.3331 14.1 15.3349 14.1 15.3366C14.1 15.3383 14.1 15.3401 14.1 15.3417C14.1 15.3435 14.1 15.3452 14.1 15.347C14.1 15.3487 14.1 15.3505 14.1 15.3523C14.1 15.3541 14.1 15.3558 14.1 15.3576C14.1 15.3594 14.1 15.3612 14.1 15.363C14.1 15.3648 14.1 15.3666 14.1 15.3685C14.1 15.3703 14.1 15.3721 14.1 15.3739C14.1 15.3758 14.1 15.3776 14.1 15.3795C14.1 15.3813 14.1 15.3833 14.1 15.3851C14.1 15.387 14.1 15.3889 14.1 15.3908C14.1 15.3926 14.1 15.3945 14.1 15.3965C14.1 15.3984 14.1 15.4003 14.1 15.4022C14.1 15.4041 14.1 15.4062 14.1 15.4081C14.1 15.41 14.1 15.4121 14.1 15.414C14.1 15.4159 14.1 15.4179 14.1 15.42C14.1 15.4219 14.1 15.4239 14.1 15.426C14.1 15.4279 14.1 15.4299 14.1 15.432C14.1 15.434 14.1 15.4361 14.1 15.4381C14.1 15.4401 14.1 15.4422 14.1 15.4442C14.1 15.4464 14.1 15.4484 14.1 15.4505C14.1 15.4526 14.1 15.4547 14.1 15.4568C14.1 15.4589 14.1 15.461 14.1 15.4631C14.1 15.4652 14.1 15.4674 14.1 15.4695C14.1 15.4717 14.1 15.4739 14.1 15.476C14.1 15.4782 14.1 15.4803 14.1 15.4825C14.1 15.4847 14.1 15.4868 14.1 15.4891C14.1 15.4913 14.1 15.4935 14.1 15.4957C14.1 15.498 14.1 15.5001 14.1 15.5024C14.1 15.5047 14.1 15.5069 14.1 15.5091C14.1 15.5114 14.1 15.5137 14.1 15.516C14.1 15.5183 14.1 15.5205 14.1 15.5229C14.1 15.5252 14.1 15.5275 14.1 15.5298C14.1 15.5322 14.1 15.5345 14.1 15.5369C14.1 15.5391 14.1 15.5415 14.1 15.5439C14.1 15.5462 14.1 15.5486 14.1 15.551C14.1 15.5534 14.1 15.5558 14.1 15.5582C14.1 15.5606 14.1 15.563 14.1 15.5654C14.1 15.5678 14.1 15.5703 14.1 15.5727C14.1 15.5753 14.1 15.5777 14.1 15.5802C14.1 15.5826 14.1 15.5851 14.1 15.5876C14.1 15.59 14.1 15.5925 14.1 15.5951C14.1 15.5976 14.1 15.6001 14.1 15.6026C14.1 15.6051 14.1 15.6077 14.1 15.6103C14.1 15.6128 14.1 15.6153 14.1 15.618C14.1 15.6205 14.1 15.6231 14.1 15.6257C14.1 15.6283 14.1 15.6309 14.1 15.6336C14.1 15.6361 14.1 15.6387 14.1 15.6414C14.1 15.644 14.1 15.6467 14.1 15.6494C14.1 15.6521 14.1 15.6547 14.1 15.6573C14.1 15.6601 14.1 15.6627 14.1 15.6655C14.1 15.6681 14.1 15.6709 14.1 15.6737C14.1 15.6763 14.1 15.6791 14.1 15.6818C14.1 15.6846 14.1 15.6873 14.1 15.6901C14.1 15.6929 14.1 15.6956 14.1 15.6985C14.1 15.7013 14.1 15.704 14.1 15.7069C14.1 15.7097 14.1 15.7125 14.1 15.7154C14.1 15.7182 14.1 15.7211 14.1 15.7239C14.1 15.7268 14.1 15.7297 14.1 15.7326C14.1 15.7355 14.1 15.7383 14.1 15.7412C14.1 15.7441 14.1 15.7471 14.1 15.75C14.1 15.7529 14.1 15.7559 14.1 15.7589C14.1 15.7617 14.1 15.7647 14.1 15.7677C14.1 15.7706 14.1 15.7736 14.1 15.7766C14.1 15.7796 14.1 15.7826 14.1 15.7857C14.1 15.7887 14.1 15.7917 14.1 15.7947C14.1 15.7979 14.1 15.8009 14.1 15.804C14.1 15.807 14.1 15.8101 14.1 15.8132C14.1 15.8163 14.1 15.8193 14.1 15.8225C14.1 15.8256 14.1 15.8287 14.1 15.8319C14.1 15.8351 14.1 15.8382 14.1 15.8413C14.1 15.8445 14.1 15.8477 14.1 15.8509C14.1 15.854 14.1 15.8573 14.1 15.8605C14.1 15.8637 14.1 15.8669 14.1 15.8701C14.1 15.8733 14.1 15.8766 14.1 15.8798C14.1 15.8832 14.1 15.8864 14.1 15.8897C14.1 15.893 14.1 15.8963 14.1 15.8996C14.1 15.9029 14.1 15.9062 14.1 15.9096C14.1 15.9128 14.1 15.9162 14.1 15.9195C14.1 15.9229 14.1 15.9263 14.1 15.9296C14.1 15.9331 14.1 15.9365 14.1 15.9398C14.1 15.9433 14.1 15.9467 14.1 15.9501C14.1 15.9535 14.1 15.957 14.1 15.9605C14.1 15.9639 14.1 15.9673 14.1 15.9708C14.1 15.9743 14.1 15.9779 14.1 15.9813C14.1 15.9848 14.1 15.9883 14.1 15.9919C14.1 15.9954 14.1 15.999 14.1 16.0025C14.1 16.0061 14.1 16.0097 14.1 16.0131C14.1 16.0167 14.1 16.0203 14.1 16.0239C14.1 16.0275 14.1 16.0311 14.1 16.0349C14.1 16.0385 14.1 16.0421 14.1 16.0458C14.1 16.0494 14.1 16.0531 14.1 16.0568C14.1 16.0604 14.1 16.0641 14.1 16.0679C14.1 16.0716 14.1 16.0753 14.1 16.079C14.1 16.0827 14.1 16.0865 14.1 16.0903C14.1 16.094 14.1 16.0977 14.1 16.1016C14.1 16.1053 14.1 16.1091 14.1 16.113C14.1 16.1168 14.1 16.1207 14.1 16.1245C14.1 16.1282 14.1 16.1322 14.1 16.136C14.1 16.1399 14.1 16.1437 14.1 16.1477C14.1 16.1515 14.1 16.1555 14.1 16.1593C14.1 16.1633 14.1 16.1672 14.1 16.1712C14.1 16.175 14.1 16.179 14.1 16.1829C14.1 16.187 14.1 16.191 14.1 16.1949C14.1 16.1989 14.1 16.203 14.1 16.2069C14.1 16.211 14.1 16.215 14.1 16.2191C14.1 16.2231 14.1 16.2272 14.1 16.2313C14.1 16.2354 14.1 16.2395 14.1 16.2435C14.1 16.2476 14.1 16.2518 14.1 16.2559C14.1 16.26 14.1 16.2642 14.1 16.2684C14.1 16.2725 14.1 16.2767 14.1 16.2809C14.1 16.2851 14.1 16.2893 14.1 16.2935C14.1 16.2977 14.1 16.3019 14.1 16.3062C14.1 16.3104 14.1 16.3146 14.1 16.3189C14.1 16.3232 14.1 16.3274 14.1 16.3317C14.1 16.3361 14.1 16.3404 14.1 16.3447C14.1 16.349 14.1 16.3533 14.1 16.3577C14.1 16.362 14.1 16.3664 14.1 16.3707C14.1 16.3752 14.1 16.3795 14.1 16.3839C14.1 16.3884 14.1 16.3928 14.1 16.3973C14.1 16.4017 14.1 16.4061 14.1 16.4106C14.1 16.415 14.1 16.4195 14.1 16.424C14.1 16.4285 14.1 16.433 14.1 16.4376C14.1 16.442 14.1 16.4466 14.1 16.4511C14.1 16.4557 14.1 16.4603 14.1 16.4648C14.1 16.4694 14.1 16.4739 14.1 16.4786C14.1 16.4832 14.1 16.4879 14.1 16.4924C14.1 16.4971 14.1 16.5018 14.1 16.5065C14.1 16.511 14.1 16.5157 14.1 16.5205C14.1 16.5252 14.1 16.5299 14.1 16.5345C14.1 16.5393 14.1 16.544 14.1 16.5488C14.1 16.5535 14.1 16.5583 14.1 16.5631C14.1 16.5679 14.1 16.5727 14.1 16.5775C14.1 16.5823 14.1 16.5871 14.1 16.5919C14.1 16.5968 14.1 16.6016 14.1 16.6065C14.1 16.6113 14.1 16.6163 14.1 16.6212C14.1 16.626 14.1 16.6309 14.1 16.6358C14.1 16.6409 14.1 16.6458 14.1 16.6507C14.1 16.6556 14.1 16.6607 14.1 16.6656C14.1 16.6706 14.1 16.6757 14.1 16.6806C14.1 16.6856 14.1 16.6907 14.1 16.6957C14.1 16.7007 14.1 16.7058 14.1 16.7109C14.1 16.716 14.1 16.721 14.1 16.7262C14.1 16.7313 14.1 16.7364 14.1 16.7415C14.1 16.7467 14.1 16.7519 14.1 16.757C14.1 16.7622 14.1 16.7673 14.1 16.7725C14.1 16.7778 14.1 16.7829 14.1 16.7882C14.1 16.7934 14.1 16.7987 14.1 16.8039C14.1 16.8092 14.1 16.8145 14.1 16.8198C14.1 16.8251 14.1 16.8303 14.1 16.8356C14.1 16.841 14.1 16.8463 14.1 16.8517C14.1 16.857 14.1 16.8624 14.1 16.8678C14.1 16.8732 14.1 16.8786 14.1 16.884C14.1 16.8894 14.1 16.8948 14.1 16.9003C14.1 16.9057 14.1 16.9112 14.1 16.9166C14.1 16.9221 14.1 16.9277 14.1 16.9331C14.1 16.9386 14.1 16.9441 14.1 16.9497C14.1 16.9553 14.1 16.9608 14.1 16.9663C14.1 16.9719 14.1 16.9775 14.1 16.9831C14.1 16.9887 14.1 16.9944 14.1 17C14.1 17.0055 14.1 17.0113 14.1 17.0169C14.1 17.0226 14.1 17.0282 14.1 17.034C14.1 17.0396 14.1 17.0454 14.1 17.0511C14.1 17.0568 14.1 17.0625 14.1 17.0683C14.1 17.0741 14.1 17.0798 14.1 17.0857C14.1 17.0915 14.1 17.0972 14.1 17.1031C14.1 17.109 14.1 17.1147 14.1 17.1206C14.1 17.1265 14.1 17.1324 14.1 17.1383C14.1 17.1441 14.1 17.15 14.1 17.156C14.1 17.1619 14.1 17.1678 14.1 17.1738C14.1 17.1798 14.1 17.1857 14.1 17.1917C14.1 17.1977 14.1 17.2037 14.1 17.2097C14.1 17.2158 14.1 17.2218 14.1 17.2278C14.1 17.2339 14.1 17.2399 14.1 17.246C14.1 17.2521 14.1 17.2583 14.1 17.2644C14.1 17.2705 14.1 17.2766 14.1 17.2827C14.1 17.2889 14.1 17.2951 14.1 17.3012C14.1 17.3075 14.1 17.3137 14.1 17.3198C14.1 17.3261 14.1 17.3323 14.1 17.3385C14.1 17.3448 14.1 17.3511 14.1 17.3574C14.1 17.3636 14.1 17.37 14.1 17.3763C14.1 17.3826 14.1 17.3889 14.1 17.3953C14.1 17.4017 14.1 17.408 14.1 17.4144C14.1 17.4209 14.1 17.4272 14.1 17.4336C14.1 17.4401 14.1 17.4465 14.1 17.4529C14.1 17.4594 14.1 17.4659 14.1 17.4723C14.1 17.4788 14.1 17.4854 14.1 17.4919C14.1 17.4984 14.1 17.505 14.1 17.5115C14.1 17.5181 14.1 17.5247 14.1 17.5313C14.1 17.5379 14.1 17.5445 14.1 17.5511C14.1 17.5577 14.1 17.5644 14.1 17.571C14.1 17.5777 14.1 17.5843 14.1 17.591C14.1 17.5977 14.1 17.6045 14.1 17.6112C14.1 17.6179 14.1 17.6246 14.1 17.6315C14.1 17.6382 14.1 17.6449 14.1 17.6517C14.1 17.6586 14.1 17.6654 14.1 17.6721C14.1 17.679 14.1 17.6859 14.1 17.6928C14.1 17.6996 14.1 17.7065 14.1 17.7134C14.1 17.7203 14.1 17.7272 14.1 17.7342C14.1 17.7411 14.1 17.7481 14.1 17.7551C14.1 17.762 14.1 17.769 14.1 17.7761C14.1 17.783 14.1 17.7901 14.1 17.7971C14.1 17.8041 14.1 17.8112 14.1 17.8183C14.1 17.8254 14.1 17.8325 14.1 17.8395C14.1 17.8467 14.1 17.8538 14.1 17.861C14.1 17.8681 14.1 17.8753 14.1 17.8825C14.1 17.8897 14.1 17.8969 14.1 17.9041C14.1 17.9113 14.1 17.9186 14.1 17.9258C14.1 17.9331 14.1 17.9403 14.1 17.9477C14.1 17.955 14.1 17.9623 14.1 17.9696C14.1 17.9769 14.1 17.9844 14.1 17.9917C14.1 17.999 14.1 18.0065 14.1 18.0139C14.1 18.0212 14.1 18.0287 14.1 18.0361C14.1 18.0435 14.1 18.051 14.1 18.0585C14.1 18.066 14.1 18.0734 14.1 18.081C14.1 18.0885 14.1 18.096 14.1 18.1035C14.1 18.1111 14.1 18.1187 14.1 18.1263C14.1 18.1339 14.1 18.1415 14.1 18.1491C14.1 18.1567 14.1 18.1644 14.1 18.1721C14.1 18.1797 14.1 18.1874 14.1 18.1951C14.1 18.2028 14.1 18.2105 14.1 18.2183C14.1 18.2259 14.1 18.2337 14.1 18.2415C14.1 18.2492 14.1 18.257 14.1 18.2649C14.1 18.2727 14.1 18.2805 14.1 18.2883C14.1 18.2963 14.1 18.3041 14.1 18.312C14.1 18.3199 14.1 18.3278 14.1 18.3357C14.1 18.3437 14.1 18.3516 14.1 18.3595C14.1 18.3674 14.1 18.3755 14.1 18.3835C14.1 18.3914 14.1 18.3995 14.1 18.4075C14.1 18.4155 14.1 18.4236 14.1 18.4316C14.1 18.4398 14.1 18.4478 14.1 18.456C14.1 18.464 14.1 18.4722 14.1 18.4803C14.1 18.4885 14.1 18.4967 14.1 18.5048C14.1 18.5131 14.1 18.5213 14.1 18.5295C14.1 18.5377 14.1 18.546 14.1 18.5543C14.1 18.5625 14.1 18.5708 14.1 18.5791C14.1 18.5874 14.1 18.5957 14.1 18.6041C14.1 18.6123 14.1 18.6207 14.1 18.6291C14.1 18.6375 14.1 18.6459 14.1 18.6543C14.1 18.6627 14.1 18.6711 14.1 18.6797C14.1 18.6881 14.1 18.6966 14.1 18.7051C14.1 18.7136 14.1 18.7221 14.1 18.7307C14.1 18.7392 14.1 18.7477 14.1 18.7563C14.1 18.7649 14.1 18.7735 14.1 18.7821C14.1 18.7907 14.1 18.7993 14.1 18.8081C14.1 18.8167 14.1 18.8253 14.1 18.834C14.1 18.8427 14.1 18.8514 14.1 18.8601C14.1 18.8689 14.1 18.8777 14.1 18.8864C14.1 18.8952 14.1 18.9039 14.1 18.9128C14.1 18.9216 14.1 18.9305 14.1 18.9393C14.1 18.9481 14.1 18.957 14.1 18.9659C14.1 18.9749 14.1 18.9837 14.1 18.9926C14.1 19.0016 14.1 19.0105 14.1 19.0195C14.1 19.0285 14.1 19.0375 14.1 19.0465C14.1 19.0555 14.1 19.0645 14.1 19.0736C14.1 19.0826 14.1 19.0917 14.1 19.1009C14.1 19.1099 14.1 19.119 14.1 19.1281C14.1 19.1372 14.1 19.1465 14.1 19.1556C14.1 19.1648 14.1 19.1739 14.1 19.1832C14.1 19.1924 14.1 19.2017 14.1 19.2109C14.1 19.2201 14.1 19.2294 14.1 19.2387C14.1 19.248 14.1 19.2573 14.1 19.2667C14.1 19.2759 14.1 19.2853 14.1 19.2948C14.1 19.3041 14.1 19.3135 14.1 19.323C14.1 19.3323 14.1 19.3418 14.1 19.3512C14.1 19.3607 14.1 19.3701 14.1 19.3796C14.1 19.3892 14.1 19.3987 14.1 19.4083C14.1 19.4178 14.1 19.4274 14.1 19.437C14.1 19.4465 14.1 19.4561 14.1 19.4658C14.1 19.4754 14.1 19.485 14.1 19.4947C14.1 19.5043 14.1 19.514 14.1 19.5237C14.1 19.5335 14.1 19.5432 14.1 19.5529C14.1 19.5626 14.1 19.5725 14.1 19.5822C14.1 19.592 14.1 19.6019 14.1 19.6117C14.1 19.6215 14.1 19.6314 14.1 19.6412C14.1 19.6511 14.1 19.661 14.1 19.6709C14.1 19.6808 14.1 19.6908 14.1 19.7007C14.1 19.7107 14.1 19.7207 14.1 19.7306C14.1 19.7407 14.1 19.7507 14.1 19.7607C14.1 19.7708 14.1 19.7809 14.1 19.791C14.1 19.8011 14.1 19.8111 14.1 19.8212C14.1 19.8314 14.1 19.8415 14.1 19.8517C14.1 19.8619 14.1 19.8721 14.1 19.8823C14.1 19.8925 14.1 19.9027 14.1 19.913C14.1 19.9232 14.1 19.9335 14.1 19.9439C14.1 19.9542 14.1 19.9645 14.1 19.9748C14.1 19.9851 14.1 19.9955 14.1 20.0059C14.1 20.0162 14.1 20.0267 14.1 20.0371C14.1 20.0475 14.1 20.058 14.1 20.0684C14.1 20.079 14.1 20.0894 14.1 20.1C14.1 20.1104 14.1 20.121 14.1 20.1315C14.1 20.1421 14.1 20.1527 14.1 20.1633C14.1 20.1739 14.1 20.1845 14.1 20.1951C14.1 20.2058 14.1 20.2165 14.1 20.2272C14.1 20.2379 14.1 20.2485 14.1 20.2593C14.1 20.27 14.1 20.2808 14.1 20.2916C14.1 20.3023 14.1 20.3131 14.1 20.324C14.1 20.3348 14.1 20.3456 14.1 20.3565C14.1 20.3673 14.1 20.3783 14.1 20.3892C14.1 20.4001 14.1 20.411 14.1 20.4219C14.1 20.4329 14.1 20.4439 14.1 20.4548C14.1 20.4659 14.1 20.4769 14.1 20.4879C14.1 20.499 14.1 20.51 14.1 20.5212C14.1 20.5322 14.1 20.5434 14.1 20.5544C14.1 20.5656 14.1 20.5767 14.1 20.5879C14.1 20.5991 14.1 20.6103 14.1 20.6215C14.1 20.6328 14.1 20.6439 14.1 20.6552C14.1 20.6665 14.1 20.6778 14.1 20.6891C14.1 20.7005 14.1 20.7117 14.1 20.7231C14.1 20.7344 14.1 20.7458 14.1 20.7572C14.1 20.7686 14.1 20.78 14.1 20.7915C14.1 20.8029 14.1 20.8145 14.1 20.8259C14.1 20.8374 14.1 20.8489 14.1 20.8604C14.1 20.8719 14.1 20.8836 14.1 20.8951C14.1 20.9067 14.1 20.9183 14.1 20.9299C14.1 20.9415 14.1 20.9532 14.1 20.9649C14.1 20.9766 14.1 20.9882 14.1 21H15.9C15.9 20.9882 15.9 20.9766 15.9 20.9649C15.9 20.9532 15.9 20.9415 15.9 20.9299C15.9 20.9183 15.9 20.9067 15.9 20.8951C15.9 20.8836 15.9 20.8719 15.9 20.8604C15.9 20.8489 15.9 20.8374 15.9 20.8259C15.9 20.8145 15.9 20.8029 15.9 20.7915C15.9 20.78 15.9 20.7686 15.9 20.7572C15.9 20.7458 15.9 20.7344 15.9 20.7231C15.9 20.7117 15.9 20.7005 15.9 20.6891C15.9 20.6778 15.9 20.6665 15.9 20.6552C15.9 20.6439 15.9 20.6328 15.9 20.6215C15.9 20.6103 15.9 20.5991 15.9 20.5879C15.9 20.5767 15.9 20.5656 15.9 20.5544C15.9 20.5434 15.9 20.5322 15.9 20.5212C15.9 20.51 15.9 20.499 15.9 20.4879C15.9 20.4769 15.9 20.4659 15.9 20.4548C15.9 20.4439 15.9 20.4329 15.9 20.4219C15.9 20.411 15.9 20.4001 15.9 20.3892C15.9 20.3783 15.9 20.3673 15.9 20.3565C15.9 20.3456 15.9 20.3348 15.9 20.324C15.9 20.3131 15.9 20.3023 15.9 20.2916C15.9 20.2808 15.9 20.27 15.9 20.2593C15.9 20.2485 15.9 20.2379 15.9 20.2272C15.9 20.2165 15.9 20.2058 15.9 20.1951C15.9 20.1845 15.9 20.1739 15.9 20.1633C15.9 20.1527 15.9 20.1421 15.9 20.1315C15.9 20.121 15.9 20.1104 15.9 20.1C15.9 20.0894 15.9 20.079 15.9 20.0684C15.9 20.058 15.9 20.0475 15.9 20.0371C15.9 20.0267 15.9 20.0162 15.9 20.0059C15.9 19.9955 15.9 19.9851 15.9 19.9748C15.9 19.9645 15.9 19.9542 15.9 19.9439C15.9 19.9335 15.9 19.9232 15.9 19.913C15.9 19.9027 15.9 19.8925 15.9 19.8823C15.9 19.8721 15.9 19.8619 15.9 19.8517C15.9 19.8415 15.9 19.8314 15.9 19.8212C15.9 19.8111 15.9 19.8011 15.9 19.791C15.9 19.7809 15.9 19.7708 15.9 19.7607C15.9 19.7507 15.9 19.7407 15.9 19.7306C15.9 19.7207 15.9 19.7107 15.9 19.7007C15.9 19.6908 15.9 19.6808 15.9 19.6709C15.9 19.661 15.9 19.6511 15.9 19.6412C15.9 19.6314 15.9 19.6215 15.9 19.6117C15.9 19.6019 15.9 19.592 15.9 19.5822C15.9 19.5725 15.9 19.5626 15.9 19.5529C15.9 19.5432 15.9 19.5335 15.9 19.5237C15.9 19.514 15.9 19.5043 15.9 19.4947C15.9 19.485 15.9 19.4754 15.9 19.4658C15.9 19.4561 15.9 19.4465 15.9 19.437C15.9 19.4274 15.9 19.4178 15.9 19.4083C15.9 19.3987 15.9 19.3892 15.9 19.3796C15.9 19.3701 15.9 19.3607 15.9 19.3512C15.9 19.3418 15.9 19.3323 15.9 19.323C15.9 19.3135 15.9 19.3041 15.9 19.2948C15.9 19.2853 15.9 19.2759 15.9 19.2667C15.9 19.2573 15.9 19.248 15.9 19.2387C15.9 19.2294 15.9 19.2201 15.9 19.2109C15.9 19.2017 15.9 19.1924 15.9 19.1832C15.9 19.1739 15.9 19.1648 15.9 19.1556C15.9 19.1465 15.9 19.1372 15.9 19.1281C15.9 19.119 15.9 19.1099 15.9 19.1009C15.9 19.0917 15.9 19.0826 15.9 19.0736C15.9 19.0645 15.9 19.0555 15.9 19.0465C15.9 19.0375 15.9 19.0285 15.9 19.0195C15.9 19.0105 15.9 19.0016 15.9 18.9926C15.9 18.9837 15.9 18.9749 15.9 18.9659C15.9 18.957 15.9 18.9481 15.9 18.9393C15.9 18.9305 15.9 18.9216 15.9 18.9128C15.9 18.9039 15.9 18.8952 15.9 18.8864C15.9 18.8777 15.9 18.8689 15.9 18.8601C15.9 18.8514 15.9 18.8427 15.9 18.834C15.9 18.8253 15.9 18.8167 15.9 18.8081C15.9 18.7993 15.9 18.7907 15.9 18.7821C15.9 18.7735 15.9 18.7649 15.9 18.7563C15.9 18.7477 15.9 18.7392 15.9 18.7307C15.9 18.7221 15.9 18.7136 15.9 18.7051C15.9 18.6966 15.9 18.6881 15.9 18.6797C15.9 18.6711 15.9 18.6627 15.9 18.6543C15.9 18.6459 15.9 18.6375 15.9 18.6291C15.9 18.6207 15.9 18.6123 15.9 18.6041C15.9 18.5957 15.9 18.5874 15.9 18.5791C15.9 18.5708 15.9 18.5625 15.9 18.5543C15.9 18.546 15.9 18.5377 15.9 18.5295C15.9 18.5213 15.9 18.5131 15.9 18.5048C15.9 18.4967 15.9 18.4885 15.9 18.4803C15.9 18.4722 15.9 18.464 15.9 18.456C15.9 18.4478 15.9 18.4398 15.9 18.4316C15.9 18.4236 15.9 18.4155 15.9 18.4075C15.9 18.3995 15.9 18.3914 15.9 18.3835C15.9 18.3755 15.9 18.3674 15.9 18.3595C15.9 18.3516 15.9 18.3437 15.9 18.3357C15.9 18.3278 15.9 18.3199 15.9 18.312C15.9 18.3041 15.9 18.2963 15.9 18.2883C15.9 18.2805 15.9 18.2727 15.9 18.2649C15.9 18.257 15.9 18.2492 15.9 18.2415C15.9 18.2337 15.9 18.2259 15.9 18.2183C15.9 18.2105 15.9 18.2028 15.9 18.1951C15.9 18.1874 15.9 18.1797 15.9 18.1721C15.9 18.1644 15.9 18.1567 15.9 18.1491C15.9 18.1415 15.9 18.1339 15.9 18.1263C15.9 18.1187 15.9 18.1111 15.9 18.1035C15.9 18.096 15.9 18.0885 15.9 18.081C15.9 18.0734 15.9 18.066 15.9 18.0585C15.9 18.051 15.9 18.0435 15.9 18.0361C15.9 18.0287 15.9 18.0212 15.9 18.0139C15.9 18.0065 15.9 17.999 15.9 17.9917C15.9 17.9844 15.9 17.9769 15.9 17.9696C15.9 17.9623 15.9 17.955 15.9 17.9477C15.9 17.9403 15.9 17.9331 15.9 17.9258C15.9 17.9186 15.9 17.9113 15.9 17.9041C15.9 17.8969 15.9 17.8897 15.9 17.8825C15.9 17.8753 15.9 17.8681 15.9 17.861C15.9 17.8538 15.9 17.8467 15.9 17.8395C15.9 17.8325 15.9 17.8254 15.9 17.8183C15.9 17.8112 15.9 17.8041 15.9 17.7971C15.9 17.7901 15.9 17.783 15.9 17.7761C15.9 17.769 15.9 17.762 15.9 17.7551C15.9 17.7481 15.9 17.7411 15.9 17.7342C15.9 17.7272 15.9 17.7203 15.9 17.7134C15.9 17.7065 15.9 17.6996 15.9 17.6928C15.9 17.6859 15.9 17.679 15.9 17.6721C15.9 17.6654 15.9 17.6586 15.9 17.6517C15.9 17.6449 15.9 17.6382 15.9 17.6315C15.9 17.6246 15.9 17.6179 15.9 17.6112C15.9 17.6045 15.9 17.5977 15.9 17.591C15.9 17.5843 15.9 17.5777 15.9 17.571C15.9 17.5644 15.9 17.5577 15.9 17.5511C15.9 17.5445 15.9 17.5379 15.9 17.5313C15.9 17.5247 15.9 17.5181 15.9 17.5115C15.9 17.505 15.9 17.4984 15.9 17.4919C15.9 17.4854 15.9 17.4788 15.9 17.4723C15.9 17.4659 15.9 17.4594 15.9 17.4529C15.9 17.4465 15.9 17.4401 15.9 17.4336C15.9 17.4272 15.9 17.4209 15.9 17.4144C15.9 17.408 15.9 17.4017 15.9 17.3953C15.9 17.3889 15.9 17.3826 15.9 17.3763C15.9 17.37 15.9 17.3636 15.9 17.3574C15.9 17.3511 15.9 17.3448 15.9 17.3385C15.9 17.3323 15.9 17.3261 15.9 17.3198C15.9 17.3137 15.9 17.3075 15.9 17.3012C15.9 17.2951 15.9 17.2889 15.9 17.2827C15.9 17.2766 15.9 17.2705 15.9 17.2644C15.9 17.2583 15.9 17.2521 15.9 17.246C15.9 17.2399 15.9 17.2339 15.9 17.2278C15.9 17.2218 15.9 17.2158 15.9 17.2097C15.9 17.2037 15.9 17.1977 15.9 17.1917C15.9 17.1857 15.9 17.1798 15.9 17.1738C15.9 17.1678 15.9 17.1619 15.9 17.156C15.9 17.15 15.9 17.1441 15.9 17.1383C15.9 17.1324 15.9 17.1265 15.9 17.1206C15.9 17.1147 15.9 17.109 15.9 17.1031C15.9 17.0972 15.9 17.0915 15.9 17.0857C15.9 17.0798 15.9 17.0741 15.9 17.0683C15.9 17.0625 15.9 17.0568 15.9 17.0511C15.9 17.0454 15.9 17.0396 15.9 17.034C15.9 17.0282 15.9 17.0226 15.9 17.0169C15.9 17.0113 15.9 17.0055 15.9 17C15.9 16.9944 15.9 16.9887 15.9 16.9831C15.9 16.9775 15.9 16.9719 15.9 16.9663C15.9 16.9608 15.9 16.9553 15.9 16.9497C15.9 16.9441 15.9 16.9386 15.9 16.9331C15.9 16.9277 15.9 16.9221 15.9 16.9166C15.9 16.9112 15.9 16.9057 15.9 16.9003C15.9 16.8948 15.9 16.8894 15.9 16.884C15.9 16.8786 15.9 16.8732 15.9 16.8678C15.9 16.8624 15.9 16.857 15.9 16.8517C15.9 16.8463 15.9 16.841 15.9 16.8356C15.9 16.8303 15.9 16.8251 15.9 16.8198C15.9 16.8145 15.9 16.8092 15.9 16.8039C15.9 16.7987 15.9 16.7934 15.9 16.7882C15.9 16.7829 15.9 16.7778 15.9 16.7725C15.9 16.7673 15.9 16.7622 15.9 16.757C15.9 16.7519 15.9 16.7467 15.9 16.7415C15.9 16.7364 15.9 16.7313 15.9 16.7262C15.9 16.721 15.9 16.716 15.9 16.7109C15.9 16.7058 15.9 16.7007 15.9 16.6957C15.9 16.6907 15.9 16.6856 15.9 16.6806C15.9 16.6757 15.9 16.6706 15.9 16.6656C15.9 16.6607 15.9 16.6556 15.9 16.6507C15.9 16.6458 15.9 16.6409 15.9 16.6358C15.9 16.6309 15.9 16.626 15.9 16.6212C15.9 16.6163 15.9 16.6113 15.9 16.6065C15.9 16.6016 15.9 16.5968 15.9 16.5919C15.9 16.5871 15.9 16.5823 15.9 16.5775C15.9 16.5727 15.9 16.5679 15.9 16.5631C15.9 16.5583 15.9 16.5535 15.9 16.5488C15.9 16.544 15.9 16.5393 15.9 16.5345C15.9 16.5299 15.9 16.5252 15.9 16.5205C15.9 16.5157 15.9 16.511 15.9 16.5065C15.9 16.5018 15.9 16.4971 15.9 16.4924C15.9 16.4879 15.9 16.4832 15.9 16.4786C15.9 16.4739 15.9 16.4694 15.9 16.4648C15.9 16.4603 15.9 16.4557 15.9 16.4511C15.9 16.4466 15.9 16.442 15.9 16.4376C15.9 16.433 15.9 16.4285 15.9 16.424C15.9 16.4195 15.9 16.415 15.9 16.4106C15.9 16.4061 15.9 16.4017 15.9 16.3973C15.9 16.3928 15.9 16.3884 15.9 16.3839C15.9 16.3795 15.9 16.3752 15.9 16.3707C15.9 16.3664 15.9 16.362 15.9 16.3577C15.9 16.3533 15.9 16.349 15.9 16.3447C15.9 16.3404 15.9 16.3361 15.9 16.3317C15.9 16.3274 15.9 16.3232 15.9 16.3189C15.9 16.3146 15.9 16.3104 15.9 16.3062C15.9 16.3019 15.9 16.2977 15.9 16.2935C15.9 16.2893 15.9 16.2851 15.9 16.2809C15.9 16.2767 15.9 16.2725 15.9 16.2684C15.9 16.2642 15.9 16.26 15.9 16.2559C15.9 16.2518 15.9 16.2476 15.9 16.2435C15.9 16.2395 15.9 16.2354 15.9 16.2313C15.9 16.2272 15.9 16.2231 15.9 16.2191C15.9 16.215 15.9 16.211 15.9 16.2069C15.9 16.203 15.9 16.1989 15.9 16.1949C15.9 16.191 15.9 16.187 15.9 16.1829C15.9 16.179 15.9 16.175 15.9 16.1712C15.9 16.1672 15.9 16.1633 15.9 16.1593C15.9 16.1555 15.9 16.1515 15.9 16.1477C15.9 16.1437 15.9 16.1399 15.9 16.136C15.9 16.1322 15.9 16.1282 15.9 16.1245C15.9 16.1207 15.9 16.1168 15.9 16.113C15.9 16.1091 15.9 16.1053 15.9 16.1016C15.9 16.0977 15.9 16.094 15.9 16.0903C15.9 16.0865 15.9 16.0827 15.9 16.079C15.9 16.0753 15.9 16.0716 15.9 16.0679C15.9 16.0641 15.9 16.0604 15.9 16.0568C15.9 16.0531 15.9 16.0494 15.9 16.0458C15.9 16.0421 15.9 16.0385 15.9 16.0349C15.9 16.0311 15.9 16.0275 15.9 16.0239C15.9 16.0203 15.9 16.0167 15.9 16.0131C15.9 16.0097 15.9 16.0061 15.9 16.0025C15.9 15.999 15.9 15.9954 15.9 15.9919C15.9 15.9883 15.9 15.9848 15.9 15.9813C15.9 15.9779 15.9 15.9743 15.9 15.9708C15.9 15.9673 15.9 15.9639 15.9 15.9605C15.9 15.957 15.9 15.9535 15.9 15.9501C15.9 15.9467 15.9 15.9433 15.9 15.9398C15.9 15.9365 15.9 15.9331 15.9 15.9296C15.9 15.9263 15.9 15.9229 15.9 15.9195C15.9 15.9162 15.9 15.9128 15.9 15.9096C15.9 15.9062 15.9 15.9029 15.9 15.8996C15.9 15.8963 15.9 15.893 15.9 15.8897C15.9 15.8864 15.9 15.8832 15.9 15.8798C15.9 15.8766 15.9 15.8733 15.9 15.8701C15.9 15.8669 15.9 15.8637 15.9 15.8605C15.9 15.8573 15.9 15.854 15.9 15.8509C15.9 15.8477 15.9 15.8445 15.9 15.8413C15.9 15.8382 15.9 15.8351 15.9 15.8319C15.9 15.8287 15.9 15.8256 15.9 15.8225C15.9 15.8193 15.9 15.8163 15.9 15.8132C15.9 15.8101 15.9 15.807 15.9 15.804C15.9 15.8009 15.9 15.7979 15.9 15.7947C15.9 15.7917 15.9 15.7887 15.9 15.7857C15.9 15.7826 15.9 15.7796 15.9 15.7766C15.9 15.7736 15.9 15.7706 15.9 15.7677C15.9 15.7647 15.9 15.7617 15.9 15.7589C15.9 15.7559 15.9 15.7529 15.9 15.75C15.9 15.7471 15.9 15.7441 15.9 15.7412C15.9 15.7383 15.9 15.7355 15.9 15.7326C15.9 15.7297 15.9 15.7268 15.9 15.7239C15.9 15.7211 15.9 15.7182 15.9 15.7154C15.9 15.7125 15.9 15.7097 15.9 15.7069C15.9 15.704 15.9 15.7013 15.9 15.6985C15.9 15.6956 15.9 15.6929 15.9 15.6901C15.9 15.6873 15.9 15.6846 15.9 15.6818C15.9 15.6791 15.9 15.6763 15.9 15.6737C15.9 15.6709 15.9 15.6681 15.9 15.6655C15.9 15.6627 15.9 15.6601 15.9 15.6573C15.9 15.6547 15.9 15.6521 15.9 15.6494C15.9 15.6467 15.9 15.644 15.9 15.6414C15.9 15.6387 15.9 15.6361 15.9 15.6336C15.9 15.6309 15.9 15.6283 15.9 15.6257C15.9 15.6231 15.9 15.6205 15.9 15.618C15.9 15.6153 15.9 15.6128 15.9 15.6103C15.9 15.6077 15.9 15.6051 15.9 15.6026C15.9 15.6001 15.9 15.5976 15.9 15.5951C15.9 15.5925 15.9 15.59 15.9 15.5876C15.9 15.5851 15.9 15.5826 15.9 15.5802C15.9 15.5777 15.9 15.5753 15.9 15.5727C15.9 15.5703 15.9 15.5678 15.9 15.5654C15.9 15.563 15.9 15.5606 15.9 15.5582C15.9 15.5558 15.9 15.5534 15.9 15.551C15.9 15.5486 15.9 15.5462 15.9 15.5439C15.9 15.5415 15.9 15.5391 15.9 15.5369C15.9 15.5345 15.9 15.5322 15.9 15.5298C15.9 15.5275 15.9 15.5252 15.9 15.5229C15.9 15.5205 15.9 15.5183 15.9 15.516C15.9 15.5137 15.9 15.5114 15.9 15.5091C15.9 15.5069 15.9 15.5047 15.9 15.5024C15.9 15.5001 15.9 15.498 15.9 15.4957C15.9 15.4935 15.9 15.4913 15.9 15.4891C15.9 15.4868 15.9 15.4847 15.9 15.4825C15.9 15.4803 15.9 15.4782 15.9 15.476C15.9 15.4739 15.9 15.4717 15.9 15.4695C15.9 15.4674 15.9 15.4652 15.9 15.4631C15.9 15.461 15.9 15.4589 15.9 15.4568C15.9 15.4547 15.9 15.4526 15.9 15.4505C15.9 15.4484 15.9 15.4464 15.9 15.4442C15.9 15.4422 15.9 15.4401 15.9 15.4381C15.9 15.4361 15.9 15.434 15.9 15.432C15.9 15.4299 15.9 15.4279 15.9 15.426C15.9 15.4239 15.9 15.4219 15.9 15.42C15.9 15.4179 15.9 15.4159 15.9 15.414C15.9 15.4121 15.9 15.41 15.9 15.4081C15.9 15.4062 15.9 15.4041 15.9 15.4022C15.9 15.4003 15.9 15.3984 15.9 15.3965C15.9 15.3945 15.9 15.3926 15.9 15.3908C15.9 15.3889 15.9 15.387 15.9 15.3851C15.9 15.3833 15.9 15.3813 15.9 15.3795C15.9 15.3776 15.9 15.3758 15.9 15.3739C15.9 15.3721 15.9 15.3703 15.9 15.3685C15.9 15.3666 15.9 15.3648 15.9 15.363C15.9 15.3612 15.9 15.3594 15.9 15.3576C15.9 15.3558 15.9 15.3541 15.9 15.3523C15.9 15.3505 15.9 15.3487 15.9 15.347C15.9 15.3452 15.9 15.3435 15.9 15.3417C15.9 15.3401 15.9 15.3383 15.9 15.3366C15.9 15.3349 15.9 15.3331 15.9 15.3314C15.9 15.3297 15.9 15.3281 15.9 15.3264C15.9 15.3247 15.9 15.323 15.9 15.3213C15.9 15.3197 15.9 15.318 15.9 15.3164C15.9 15.3147 15.9 15.3131 15.9 15.3115C15.9 15.3098 15.9 15.3083 15.9 15.3066C15.9 15.305 15.9 15.3033 15.9 15.3018C15.9 15.3002 15.9 15.2985 15.9 15.297C15.9 15.2954 15.9 15.2939 15.9 15.2923C15.9 15.2907 15.9 15.2892 15.9 15.2876C15.9 15.2861 15.9 15.2845 15.9 15.2831C15.9 15.2815 15.9 15.2799 15.9 15.2785C15.9 15.2769 15.9 15.2755 15.9 15.2739C15.9 15.2725 15.9 15.2709 15.9 15.2695C15.9 15.2679 15.9 15.2665 15.9 15.2651C15.9 15.2636 15.9 15.2622 15.9 15.2607C15.9 15.2593 15.9 15.2579 15.9 15.2564C15.9 15.255 15.9 15.2535 15.9 15.2521C15.9 15.2507 15.9 15.2492 15.9 15.2479C15.9 15.2465 15.9 15.245 15.9 15.2437C15.9 15.2423 15.9 15.2409 15.9 15.2396C15.9 15.2382 15.9 15.2369 15.9 15.2354C15.9 15.2341 15.9 15.2328 15.9 15.2315C15.9 15.2301 15.9 15.2288 15.9 15.2275C15.9 15.2262 15.9 15.2249 15.9 15.2235C15.9 15.2222 15.9 15.2209 15.9 15.2196C15.9 15.2183 15.9 15.2171 15.9 15.2157C15.9 15.2144 15.9 15.2132 15.9 15.2119C15.9 15.2107 15.9 15.2094 15.9 15.2082C15.9 15.207 15.9 15.2057 15.9 15.2045C15.9 15.2033 15.9 15.2021 15.9 15.2007C15.9 15.1995 15.9 15.1983 15.9 15.1971C15.9 15.1959 15.9 15.1947 15.9 15.1935C15.9 15.1923 15.9 15.1913 15.9 15.1901C15.9 15.1889 15.9 15.1877 15.9 15.1866C15.9 15.1854 15.9 15.1842 15.9 15.1831C15.9 15.1819 15.9 15.1808 15.9 15.1796C15.9 15.1785 15.9 15.1775 15.9 15.1763C15.9 15.1752 15.9 15.1741 15.9 15.173C15.9 15.1718 15.9 15.1707 15.9 15.1697C15.9 15.1686 15.9 15.1675 15.9 15.1664C15.9 15.1653 15.9 15.1643 15.9 15.1633C15.9 15.1622 15.9 15.1611 15.9 15.1601C15.9 15.1591 15.9 15.158 15.9 15.1569C15.9 15.156 15.9 15.1549 15.9 15.1539C15.9 15.1529 15.9 15.1519 15.9 15.1508C15.9 15.1499 15.9 15.1489 15.9 15.1478C15.9 15.1469 15.9 15.1459 15.9 15.1449C15.9 15.144 15.9 15.1429 15.9 15.1419C15.9 15.141 15.9 15.14 15.9 15.1391C15.9 15.1381 15.9 15.1373 15.9 15.1363C15.9 15.1353 15.9 15.1344 15.9 15.1334C15.9 15.1326 15.9 15.1316 15.9 15.1307C15.9 15.1298 15.9 15.1289 15.9 15.128C15.9 15.1271 15.9 15.1262 15.9 15.1253C15.9 15.1244 15.9 15.1236 15.9 15.1226C15.9 15.1218 15.9 15.1209 15.9 15.12C15.9 15.1191 15.9 15.1183 15.9 15.1175C15.9 15.1166 15.9 15.1158 15.9 15.1149C15.9 15.1141 15.9 15.1133 15.9 15.1124C15.9 15.1116 15.9 15.1107 15.9 15.11C15.9 15.1092 15.9 15.1083 15.9 15.1075C15.9 15.1068 15.9 15.1059 15.9 15.1051C15.9 15.1044 15.9 15.1035 15.9 15.1028C15.9 15.102 15.9 15.1013 15.9 15.1004C15.9 15.0997 15.9 15.099 15.9 15.0981C15.9 15.0974 15.9 15.0967 15.9 15.096C15.9 15.0953 15.9 15.0944 15.9 15.0937C15.9 15.093 15.9 15.0923 15.9 15.0915C15.9 15.0908 15.9 15.0901 15.9 15.0894C15.9 15.0887 15.9 15.0879 15.9 15.0873C15.9 15.0866 15.9 15.0859 15.9 15.0852C15.9 15.0846 15.9 15.0839 15.9 15.0831C15.9 15.0825 15.9 15.0818 15.9 15.0811C15.9 15.0805 15.9 15.0798 15.9 15.0792C15.9 15.0786 15.9 15.0779 15.9 15.0773C15.9 15.0765 15.9 15.0759 15.9 15.0753C15.9 15.0746 15.9 15.074 15.9 15.0734C15.9 15.0728 15.9 15.0722 15.9 15.0716C15.9 15.071 15.9 15.0703 15.9 15.0697C15.9 15.0691 15.9 15.0685 15.9 15.068C15.9 15.0674 15.9 15.0668 15.9 15.0662C15.9 15.0656 15.9 15.065 15.9 15.0645C15.9 15.0639 15.9 15.0633 15.9 15.0627C15.9 15.0623 15.9 15.0617 15.9 15.0611C15.9 15.0606 15.9 15.06 15.9 15.0595C15.9 15.0589 15.9 15.0584 15.9 15.0578C15.9 15.0573 15.9 15.0569 15.9 15.0563C15.9 15.0558 15.9 15.0553 15.9 15.0547C15.9 15.0542 15.9 15.0537 15.9 15.0533C15.9 15.0528 15.9 15.0522 15.9 15.0517C15.9 15.0512 15.9 15.0507 15.9 15.0503C15.9 15.0498 15.9 15.0493 15.9 15.0488C15.9 15.0483 15.9 15.0479 15.9 15.0474C15.9 15.0469 15.9 15.0465 15.9 15.0461C15.9 15.0456 15.9 15.0451 15.9 15.0447C15.9 15.0443 15.9 15.0438 15.9 15.0433C15.9 15.0429 15.9 15.0425 15.9 15.0421C15.9 15.0416 15.9 15.0413 15.9 15.0408C15.9 15.0403 15.9 15.0399 15.9 15.0396C15.9 15.0391 15.9 15.0387 15.9 15.0383C15.9 15.0379 15.9 15.0375 15.9 15.0371C15.9 15.0367 15.9 15.0374 15.9 15.0371C15.9 15.0366 15.9 15.0351 15.9 15.0348C15.9 15.0344 15.9 15.0351 15.9 15.0348C15.9 15.0344 15.9 15.033 15.9 15.0326C15.9 15.0323 15.9 15.033 15.9 15.0326C15.9 15.0323 15.9 15.0308 15.9 15.0305C15.9 15.0301 15.9 15.0308 15.9 15.0305C15.9 15.0301 15.9 15.0288 15.9 15.0284C15.9 15.0281 15.9 15.0287 15.9 15.0284C15.9 15.0281 15.9 15.0267 15.9 15.0265C15.9 15.0261 15.9 15.0269 15.9 15.0265C15.9 15.0261 15.9 15.0249 15.9 15.0246C15.9 15.0243 15.9 15.0248 15.9 15.0246C15.9 15.0243 15.9 15.0231 15.9 15.0229C15.9 15.0225 15.9 15.0231 15.9 15.0229C15.9 15.0225 15.9 15.0215 15.9 15.0212C15.9 15.021 15.9 15.0215 15.9 15.0212C15.9 15.021 15.9 15.0199 15.9 15.0197C15.9 15.0193 15.9 15.0199 15.9 15.0197C15.9 15.0194 15.9 15.0183 15.9 15.0181C15.9 15.0179 15.9 15.0183 15.9 15.0181C15.9 15.0179 15.9 15.0169 15.9 15.0167C15.9 15.0164 15.9 15.0169 15.9 15.0167C15.9 15.0164 15.9 15.0156 15.9 15.0153C15.9 15.0151 15.9 15.0156 15.9 15.0153C15.9 15.0152 15.9 15.0143 15.9 15.014C15.9 15.0138 15.9 15.0125 15.9 15.0122C15.9 15.0121 15.9 15.0108 15.9 15.0107C15.9 15.0105 15.9 15.0093 15.9 15.0092C15.9 15.0091 15.9 15.008 15.9 15.0078C15.9 15.0077 15.9 15.0068 15.9 15.0066C15.9 15.0065 15.9 15.0054 15.9 15.0053C15.9 15.0051 15.9 15.0054 15.9 15.0053C15.9 15.0051 15.9 15.0042 15.9 15.0041C15.9 15.0039 15.9 15.0027 15.9 15.0026C15.9 15.0026 15.9 15.0015 15.9 15.0014C15.9 15.0013 15.9 15 15.9 15H15ZM15.9 15V8.99998H14.1V15H15.9Z" fill="white"/>
</g>
</svg>
